<svg width="1952" height="604" viewBox="0 0 1952 604" fill="none" xmlns="http://www.w3.org/2000/svg">
<rect width="1944" height="524" transform="matrix(1 0 0 -1 8 524)" fill="#E3F3FD"/>
<ellipse cx="1006.5" cy="548" rx="59.5" ry="56" fill="#E3F3FD"/>
<ellipse cx="1091.5" cy="548" rx="59.5" ry="56" fill="#E3F3FD"/>
<ellipse cx="1168.5" cy="548" rx="59.5" ry="56" fill="#E3F3FD"/>
<ellipse cx="1245.5" cy="548" rx="59.5" ry="56" fill="#E3F3FD"/>
<ellipse cx="1322.5" cy="548" rx="59.5" ry="56" fill="#E3F3FD"/>
<ellipse cx="1407.5" cy="548" rx="59.5" ry="56" fill="#E3F3FD"/>
<ellipse cx="1484.5" cy="548" rx="59.5" ry="56" fill="#E3F3FD"/>
<ellipse cx="1568.5" cy="539" rx="59.5" ry="56" fill="#E3F3FD"/>
<ellipse cx="1653.5" cy="539" rx="59.5" ry="56" fill="#E3F3FD"/>
<ellipse cx="1738.5" cy="539" rx="59.5" ry="56" fill="#E3F3FD"/>
<ellipse cx="1815.5" cy="539" rx="59.5" ry="56" fill="#E3F3FD"/>
<ellipse cx="1892.5" cy="539" rx="59.5" ry="56" fill="#E3F3FD"/>
<ellipse cx="59.5" cy="548" rx="59.5" ry="56" fill="#E3F3FD"/>
<ellipse cx="152.5" cy="548" rx="59.5" ry="56" fill="#E3F3FD"/>
<ellipse cx="229.5" cy="548" rx="59.5" ry="56" fill="#E3F3FD"/>
<ellipse cx="306.5" cy="548" rx="59.5" ry="56" fill="#E3F3FD"/>
<ellipse cx="383.5" cy="548" rx="59.5" ry="56" fill="#E3F3FD"/>
<ellipse cx="468.5" cy="548" rx="59.5" ry="56" fill="#E3F3FD"/>
<ellipse cx="545.5" cy="548" rx="59.5" ry="56" fill="#E3F3FD"/>
<ellipse cx="622.5" cy="548" rx="59.5" ry="56" fill="#E3F3FD"/>
<ellipse cx="707.5" cy="548" rx="59.5" ry="56" fill="#E3F3FD"/>
<ellipse cx="792.5" cy="548" rx="59.5" ry="56" fill="#E3F3FD"/>
<ellipse cx="869.5" cy="548" rx="59.5" ry="56" fill="#E3F3FD"/>
<ellipse cx="946.5" cy="548" rx="59.5" ry="56" fill="#E3F3FD"/>
</svg>
